<svg version="1.1" id="Layer_linkedin" xmlns="http://www.w3.org/2000/svg" x="0" y="0" viewBox="0 0 128 128" style="enable-background:new 0 0 128 128" xml:space="preserve">
  <style>
    :hover{cursor:pointer}.st1{fill:#fff}
  </style>
  <g id="XMLID_1_">
    <g id="XMLID_2_">
      <path id="XMLID_4_" d="M64 128C28.7 128 0 99.3 0 64S28.7 0 64 0s64 28.7 64 64-28.7 64-64 64z" style="fill:#247bb6"/>
    </g>
    <g id="XMLID_3_">
      <path id="XMLID_5_" class="st1" d="M33.1 53.2h13.2v42.3H33.1V53.2zm6.6-21c4.2 0 7.6 3.4 7.6 7.6 0 4.2-3.4 7.6-7.6 7.6-4.2 0-7.6-3.4-7.6-7.6 0-4.2 3.4-7.6 7.6-7.6"/>
      <path id="XMLID_8_" class="st1" d="M54.6 53.2h12.6V59h.2c1.8-3.3 6.1-6.8 12.5-6.8 13.3 0 15.8 8.8 15.8 20.2v23.2H82.5V75c0-4.9-.1-11.2-6.8-11.2-6.9 0-7.9 5.3-7.9 10.9v20.9H54.6V53.2z"/>
    </g>
  </g>
</svg>
