<svg xmlns="http://www.w3.org/2000/svg" viewBox="0 0 128 128" style="enable-background:new 0 0 128 128" xml:space="preserve">
  <path d="M64 128C28.7 128 0 99.3 0 64S28.7 0 64 0s64 28.7 64 64-28.7 64-64 64z" style="fill:#d84315"/>
  <path d="M95.2 51.3s-.6-4.4-2.5-6.3c-2.4-2.5-5.1-2.6-6.4-2.7-8.9-.7-22.3-.7-22.3-.7s-13.4 0-22.3.6c-1.2.1-4 .2-6.4 2.7-1.9 1.9-2.5 6.3-2.5 6.3s-.6 5.2-.6 10.3v4.8c0 5.2.6 10.3.6 10.3s.6 4.4 2.5 6.3c2.4 2.5 5.6 2.5 7 2.7 5.1.5 21.7.6 21.7.6s13.4 0 22.3-.7c1.2-.1 4-.2 6.4-2.7 1.9-1.9 2.5-6.3 2.5-6.3s.6-5.2.6-10.3v-4.8c.1-5-.6-10.1-.6-10.1zm-37.8 21V54.4l17.2 9-17.2 8.9z" style="fill:#fff"/>
</svg>
